HIERARCHY
ROOT hip
{
  OFFSET 5.70873 43.8894 -1.52928
  CHANNELS 6 Xposition Yposition Zposition Zrotation Xrotation Yrotation
  JOINT abdomen
  {
    OFFSET 0 5.99393 0.287273
    CHANNELS 6 Xposition Yposition Zposition Zrotation Xrotation Yrotation
    JOINT chest
    {
      OFFSET 0 6.65865 -0.856112
      CHANNELS 6 Xposition Yposition Zposition Zrotation Xrotation Yrotation
      JOINT neck
      {
        OFFSET 0 8.65624 -1.42685
        CHANNELS 6 Xposition Yposition Zposition Zrotation Xrotation Yrotation
        JOINT head
        {
          OFFSET 0 3.80999 -0.190247
          CHANNELS 6 Xposition Yposition Zposition Zrotation Xrotation Yrotation
          End Site
          {
            OFFSET 0 0 0
          }
        }
      }
      JOINT rCollar
      {
        OFFSET -1.4963 7.5744 -1.52136
        CHANNELS 6 Xposition Yposition Zposition Zrotation Xrotation Yrotation
        JOINT rShldr
        {
          OFFSET -5.47506 -0.905672 0.485692
          CHANNELS 6 Xposition Yposition Zposition Zrotation Xrotation Yrotation
          JOINT rForeArm
          {
            OFFSET -11.3069 -0.201091 0.618544
            CHANNELS 6 Xposition Yposition Zposition Zrotation Xrotation Yrotation
            JOINT rHand
            {
              OFFSET -9.61414 -0.254739 3.48553
              CHANNELS 6 Xposition Yposition Zposition Zrotation Xrotation Yrotation
              JOINT rThumb1
              {
                OFFSET 0.176263 -0.07068 1.26622
                CHANNELS 6 Xposition Yposition Zposition Zrotation Xrotation Yrotation
                JOINT rThumb2
                {
                  OFFSET -1.04683 -0.546484 1.82182
                  CHANNELS 6 Xposition Yposition Zposition Zrotation Xrotation Yrotation
                  JOINT rThumb3
                  {
                    OFFSET -0.993472 -0.621916 0.655506
                    CHANNELS 6 Xposition Yposition Zposition Zrotation Xrotation Yrotation
                    End Site
                    {
                      OFFSET -0.996134 -0.66263 0.644615
                    }
                  }
                }
              }
              JOINT rIndex1
              {
                OFFSET -2.64253 0.566363 2.4162
                CHANNELS 6 Xposition Yposition Zposition Zrotation Xrotation Yrotation
                JOINT rIndex2
                {
                  OFFSET -1.39394 -0.635138 0.899356
                  CHANNELS 6 Xposition Yposition Zposition Zrotation Xrotation Yrotation
                  JOINT rIndex3
                  {
                    OFFSET -0.622395 -0.856016 0.402182
                    CHANNELS 6 Xposition Yposition Zposition Zrotation Xrotation Yrotation
                    End Site
                    {
                      OFFSET -0.472476 -0.801802 0.34216
                    }
                  }
                }
              }
              JOINT rMid1
              {
                OFFSET -3.20814 0.514427 1.52547
                CHANNELS 6 Xposition Yposition Zposition Zrotation Xrotation Yrotation
                JOINT rMid2
                {
                  OFFSET -1.56545 -0.497974 0.68919
                  CHANNELS 6 Xposition Yposition Zposition Zrotation Xrotation Yrotation
                  JOINT rMid3
                  {
                    OFFSET -0.679943 -1.17582 0.444246
                    CHANNELS 6 Xposition Yposition Zposition Zrotation Xrotation Yrotation
                    End Site
                    {
                      OFFSET -0.343874 -0.941341 0.267611
                    }
                  }
                }
              }
              JOINT rRing1
              {
                OFFSET -3.47877 0.200518 0.597719
                CHANNELS 6 Xposition Yposition Zposition Zrotation Xrotation Yrotation
                JOINT rRing2
                {
                  OFFSET -1.28208 -0.53155 0.44672
                  CHANNELS 6 Xposition Yposition Zposition Zrotation Xrotation Yrotation
                  JOINT rRing3
                  {
                    OFFSET -0.710288 -0.970167 0.4032
                    CHANNELS 6 Xposition Yposition Zposition Zrotation Xrotation Yrotation
                    End Site
                    {
                      OFFSET -0.403228 -0.950952 0.378354
                    }
                  }
                }
              }
              JOINT rPinky1
              {
                OFFSET -3.42483 -0.278904 -0.240415
                CHANNELS 6 Xposition Yposition Zposition Zrotation Xrotation Yrotation
                JOINT rPinky2
                {
                  OFFSET -1.05787 -0.635999 0.156459
                  CHANNELS 6 Xposition Yposition Zposition Zrotation Xrotation Yrotation
                  JOINT rPinky3
                  {
                    OFFSET -0.42815 -0.754232 0.287187
                    CHANNELS 6 Xposition Yposition Zposition Zrotation Xrotation Yrotation
                    End Site
                    {
                      OFFSET -0.235717 -0.725605 0.279416
                    }
                  }
                }
              }
            }
          }
        }
      }
      JOINT lCollar
      {
        OFFSET 1.4963 7.5744 -1.52136
        CHANNELS 6 Xposition Yposition Zposition Zrotation Xrotation Yrotation
        JOINT lShldr
        {
          OFFSET 5.47506 -0.905672 0.485692
          CHANNELS 6 Xposition Yposition Zposition Zrotation Xrotation Yrotation
          JOINT lForeArm
          {
            OFFSET 11.3069 -0.201091 0.618544
            CHANNELS 6 Xposition Yposition Zposition Zrotation Xrotation Yrotation
            JOINT lHand
            {
              OFFSET 9.61414 -0.254739 3.48553
              CHANNELS 6 Xposition Yposition Zposition Zrotation Xrotation Yrotation
              JOINT lThumb1
              {
                OFFSET -0.176263 -0.07068 1.26622
                CHANNELS 6 Xposition Yposition Zposition Zrotation Xrotation Yrotation
                JOINT lThumb2
                {
                  OFFSET 1.04683 -0.546484 1.82182
                  CHANNELS 6 Xposition Yposition Zposition Zrotation Xrotation Yrotation
                  JOINT lThumb3
                  {
                    OFFSET 0.993472 -0.621916 0.655506
                    CHANNELS 6 Xposition Yposition Zposition Zrotation Xrotation Yrotation
                    End Site
                    {
                      OFFSET 0.996134 -0.66263 0.644615
                    }
                  }
                }
              }
              JOINT lIndex1
              {
                OFFSET 2.64253 0.566363 2.4162
                CHANNELS 6 Xposition Yposition Zposition Zrotation Xrotation Yrotation
                JOINT lIndex2
                {
                  OFFSET 1.39394 -0.635138 0.899356
                  CHANNELS 6 Xposition Yposition Zposition Zrotation Xrotation Yrotation
                  JOINT lIndex3
                  {
                    OFFSET 0.622395 -0.856016 0.402182
                    CHANNELS 6 Xposition Yposition Zposition Zrotation Xrotation Yrotation
                    End Site
                    {
                      OFFSET 0.472476 -0.801802 0.34216
                    }
                  }
                }
              }
              JOINT lMid1
              {
                OFFSET 3.20814 0.514427 1.52547
                CHANNELS 6 Xposition Yposition Zposition Zrotation Xrotation Yrotation
                JOINT lMid2
                {
                  OFFSET 1.56545 -0.497974 0.68919
                  CHANNELS 6 Xposition Yposition Zposition Zrotation Xrotation Yrotation
                  JOINT lMid3
                  {
                    OFFSET 0.679943 -1.17582 0.444246
                    CHANNELS 6 Xposition Yposition Zposition Zrotation Xrotation Yrotation
                    End Site
                    {
                      OFFSET 0.343874 -0.941341 0.267611
                    }
                  }
                }
              }
              JOINT lRing1
              {
                OFFSET 3.47877 0.200518 0.597719
                CHANNELS 6 Xposition Yposition Zposition Zrotation Xrotation Yrotation
                JOINT lRing2
                {
                  OFFSET 1.28208 -0.53155 0.44672
                  CHANNELS 6 Xposition Yposition Zposition Zrotation Xrotation Yrotation
                  JOINT lRing3
                  {
                    OFFSET 0.710288 -0.970167 0.4032
                    CHANNELS 6 Xposition Yposition Zposition Zrotation Xrotation Yrotation
                    End Site
                    {
                      OFFSET 0.403228 -0.950952 0.378354
                    }
                  }
                }
              }
              JOINT lPinky1
              {
                OFFSET 3.42483 -0.278904 -0.240415
                CHANNELS 6 Xposition Yposition Zposition Zrotation Xrotation Yrotation
                JOINT lPinky2
                {
                  OFFSET 1.05787 -0.635999 0.156459
                  CHANNELS 6 Xposition Yposition Zposition Zrotation Xrotation Yrotation
                  JOINT lPinky3
                  {
                    OFFSET 0.42815 -0.754232 0.287187
                    CHANNELS 6 Xposition Yposition Zposition Zrotation Xrotation Yrotation
                    End Site
                    {
                      OFFSET 0.235717 -0.725605 0.279416
                    }
                  }
                }
              }
            }
          }
        }
      }
    }
  }
  JOINT rThigh
  {
    OFFSET -4.17848 -1.02486 0.046356
    CHANNELS 6 Xposition Yposition Zposition Zrotation Xrotation Yrotation
    JOINT rShin
    {
      OFFSET 1.27155 -17.465 -0.237699
      CHANNELS 6 Xposition Yposition Zposition Zrotation Xrotation Yrotation
      JOINT rFoot
      {
        OFFSET 0.529163 -17.3815 -1.19582
        CHANNELS 6 Xposition Yposition Zposition Zrotation Xrotation Yrotation
        JOINT rToe
        {
          OFFSET -0.711591 -4.4863 4.0596
          CHANNELS 6 Xposition Yposition Zposition Zrotation Xrotation Yrotation
          End Site
          {
            OFFSET -0.869915 -1.10655 1.99006
          }
        }
      }
    }
  }
  JOINT lThigh
  {
    OFFSET 4.17848 -1.02486 0.046356
    CHANNELS 6 Xposition Yposition Zposition Zrotation Xrotation Yrotation
    JOINT lShin
    {
      OFFSET -1.27155 -17.465 -0.237699
      CHANNELS 6 Xposition Yposition Zposition Zrotation Xrotation Yrotation
      JOINT lFoot
      {
        OFFSET -0.529163 -17.3815 -1.19582
        CHANNELS 6 Xposition Yposition Zposition Zrotation Xrotation Yrotation
        JOINT lToe
        {
          OFFSET 0.711591 -4.4863 4.0596
          CHANNELS 6 Xposition Yposition Zposition Zrotation Xrotation Yrotation
          End Site
          {
            OFFSET 0.869915 -1.10655 1.99006
          }
        }
      }
    }
  }
}
MOTION
Frames:	4
Frame Time:	0.0333333
-12.9873 6.69437 26.5182 10.1807 -64.7109 21.1565 0 5.99393 0.287273 -0.172977 -11.735 0.565899 0 6.65865 -0.856112 -0.232131 -23.4711 1.1316 0 8.65624 -1.42685 0.374528 -0.655508 -5.68349 -3.55271e-015 3.80999 -0.190247 17.7696 4.87545 -1.5682 -1.4963 7.5744 -1.52136 -21.1026 -0.0894974 -2.50509 -5.47506 -0.905672 0.485692 58.7731 -0.395553 79.8058 -11.3069 -0.201091 0.618544 -4.32897 -9.68778 34.522 -9.61414 -0.254739 3.48553 6.55091 -5.50615 37.5347 0.176263 -0.07068 1.26622 -19.5563 47.1206 31.2749 -1.04683 -0.546484 1.82182 4.64751 -3.91596 12.6941 -0.993472 -0.621916 0.655506 -6.69359 11.6018 -27.2269 -2.64253 0.566363 2.4162 22.6624 6.19457 -14.3657 -1.39394 -0.635138 0.899356 39.7253 7.68603 -8.77027 -0.622395 -0.856016 0.402182 40.5678 7.77383 -9.00292 -3.20814 0.514427 1.52547 6.20246 0.64657 -2.1029 -1.56545 -0.497974 0.68919 51.7974 10.4666 -12.7907 -0.679943 -1.17582 0.444246 14.547 4.13122 -2.59427 -3.47877 0.200518 0.597719 13.4234 -1.35172 -5.3748 -1.28208 -0.53155 0.44672 20.461 6.18707 -4.84312 -0.710288 -0.970167 0.4032 22.0752 6.58732 -5.30762 -3.42483 -0.278904 -0.240415 -11.5768 -9.15206 -6.3098 -1.05787 -0.635999 0.156459 21.1476 6.99531 -4.85967 -0.42815 -0.754232 0.287187 10.7638 3.81197 -2.17124 1.4963 7.5744 -1.52136 5.16432 -1.47315 -15.364 5.47506 -0.905672 0.485692 -58.7048 -1.93107 -59.1774 11.3069 -0.201091 0.618544 -22.0931 -27.7865 -79.625 9.61414 -0.254739 3.48553 -7.21467 22.1501 -28.6522 -0.176263 -0.07068 1.26622 24.2781 38.4816 -35.502 1.04683 -0.546484 1.82182 -6.53175 -1.24815 -11.4633 0.993472 -0.621916 0.655506 6.4512 2.66727 11.8095 2.64253 0.566363 2.4162 -5.1898 4.48319 12.5249 1.39394 -0.635138 0.899356 -36.9452 6.74328 17.0314 0.622395 -0.856016 0.402182 -38.0064 6.76574 17.556 3.20814 0.514427 1.52547 -1.48523 -0.683608 1.67103 1.56545 -0.497974 0.68919 -44.4871 8.35707 21.4001 0.679943 -1.17582 0.444246 -9.36074 3.19837 3.9926 3.47877 0.200518 0.597719 -8.07664 -2.6376 5.9902 1.28208 -0.53155 0.44672 -14.7811 5.15022 7.29473 0.710288 -0.970167 0.4032 -16.28 5.55275 8.08528 3.42483 -0.278904 -0.240415 11.7677 -11.303 2.60131 1.05787 -0.635999 0.156459 -18.8961 6.82256 9.38287 0.42815 -0.754232 0.287187 -9.18837 3.76101 4.34944 -4.17848 -1.02486 0.046356 -30.9927 -17.6494 -9.06968 1.27155 -17.465 -0.237699 0.680375 0.116543 4.7168 0.529163 -17.3815 -1.19582 14.5104 21.4011 -2.63645 -0.711591 -4.4863 4.0596 1.29312 9.22637 -0.352737 4.17848 -1.02486 0.046356 41.8141 -40.1989 19.7414 -1.27155 -17.465 -0.237699 0.648763 24.512 -1.77342 -0.529163 -17.3815 -1.19582 -9.60604 15.674 -15.4502 0.711591 -4.4863 4.0596 0.188383 -1.52668 0.0793009 
-12.9583 6.68428 26.5216 10.348 -64.643 21.3266 0 5.99393 0.287273 -0.210663 -11.7667 0.580812 0 6.65865 -0.856112 -0.306332 -23.535 1.1542 3.55271e-015 8.65624 -1.42685 0.298861 -0.467105 -5.7821 -3.55271e-015 3.80999 -0.190247 17.9047 4.7772 -1.5653 -1.4963 7.5744 -1.52136 -21.1342 -0.0835445 -2.47422 -5.47506 -0.905672 0.485692 58.6625 -0.431088 79.8501 -11.3069 -0.201091 0.618544 -4.68993 -9.31206 34.0842 -9.61414 -0.254739 3.48553 6.20878 -6.29098 37.993 0.176263 -0.07068 1.26622 -19.5563 47.1207 31.2749 -1.04683 -0.546484 1.82182 4.6476 -3.91603 12.6943 -0.993472 -0.621916 0.655506 -6.69359 11.6018 -27.2268 -2.64253 0.566363 2.4162 22.6624 6.19459 -14.3658 -1.39394 -0.635138 0.899356 39.7253 7.68603 -8.77027 -0.622395 -0.856016 0.402182 40.5678 7.77383 -9.00292 -3.20814 0.514427 1.52547 6.20243 0.646577 -2.1029 -1.56545 -0.497974 0.68919 51.7974 10.4666 -12.7907 -0.679943 -1.17582 0.444246 14.547 4.13121 -2.59426 -3.47877 0.200518 0.597719 13.4234 -1.35171 -5.37479 -1.28208 -0.53155 0.44672 20.461 6.18707 -4.84311 -0.710288 -0.970167 0.4032 22.0753 6.58665 -5.30737 -3.42483 -0.278904 -0.240415 -11.5768 -9.15205 -6.3098 -1.05787 -0.635999 0.156459 21.1476 6.99533 -4.85965 -0.42815 -0.754232 0.287187 10.7638 3.81197 -2.17125 1.4963 7.5744 -1.52136 5.1621 -1.47314 -15.3285 5.47506 -0.905672 0.485692 -58.6186 -1.83517 -59.2756 11.3069 -0.201091 0.618544 -20.9087 -28.023 -78.9325 9.61414 -0.254739 3.48553 -7.46291 21.1406 -28.8473 -0.176263 -0.07068 1.26622 24.2781 38.4817 -35.502 1.04683 -0.546484 1.82182 -6.53176 -1.24815 -11.4633 0.993472 -0.621916 0.655506 6.4512 2.66725 11.8095 2.64253 0.566363 2.4162 -5.18978 4.48318 12.5249 1.39394 -0.635138 0.899356 -36.9452 6.74326 17.0313 0.622395 -0.856016 0.402182 -38.0064 6.76572 17.556 3.20814 0.514427 1.52547 -1.48519 -0.683618 1.67104 1.56545 -0.497974 0.68919 -44.487 8.35708 21.4001 0.679943 -1.17582 0.444246 -9.36073 3.19836 3.9926 3.47877 0.200518 0.597719 -8.07662 -2.6376 5.99019 1.28208 -0.53155 0.44672 -14.7811 5.1502 7.29474 0.710288 -0.970167 0.4032 -16.2799 5.55274 8.08528 3.42483 -0.278904 -0.240415 11.7678 -11.303 2.6013 1.05787 -0.635999 0.156459 -18.896 6.82254 9.38286 0.42815 -0.754232 0.287187 -9.18966 3.76148 4.35009 -4.17848 -1.02486 0.046356 -31.1504 -17.7437 -9.12861 1.27155 -17.465 -0.237699 0.686218 0.190552 4.70882 0.529163 -17.3815 -1.19582 14.6163 21.5015 -2.82556 -0.711591 -4.4863 4.0596 1.31173 9.35497 -0.359188 4.17848 -1.02486 0.046356 41.7363 -40.3849 19.8571 -1.27155 -17.465 -0.237699 0.678419 24.7796 -1.74809 -0.529163 -17.3815 -1.19582 -9.37186 15.435 -15.6072 0.711591 -4.4863 4.0596 0.166115 -1.3472 0.0697243 
-12.9836 6.69274 26.5394 10.1856 -64.7625 21.2918 0 5.99393 0.287273 -0.161443 -11.6779 0.579964 0 6.65865 -0.856112 -0.205785 -23.3566 1.16302 3.55271e-015 8.65624 -1.42685 0.315702 -0.941579 -5.69923 0 3.80999 -0.190247 17.3827 5.12068 -1.84645 -1.4963 7.5744 -1.52136 -20.9685 -0.104991 -1.76161 -5.47506 -0.905672 0.485692 58.4976 -0.985636 79.4635 -11.3069 -0.201091 0.618544 -4.6307 -9.45064 34.5256 -9.61414 -0.254739 3.48553 5.45335 -6.32496 37.7089 0.176263 -0.07068 1.26622 -19.5563 47.1207 31.2749 -1.04683 -0.546484 1.82182 4.6477 -3.91607 12.6946 -0.993472 -0.621916 0.655506 -6.6936 11.6018 -27.2268 -2.64253 0.566363 2.4162 22.6624 6.19458 -14.3658 -1.39394 -0.635138 0.899356 39.7253 7.68603 -8.77027 -0.622395 -0.856016 0.402182 40.5678 7.77383 -9.00293 -3.20814 0.514427 1.52547 6.20245 0.646579 -2.10291 -1.56545 -0.497974 0.68919 51.7974 10.4666 -12.7907 -0.679943 -1.17582 0.444246 14.547 4.13122 -2.59426 -3.47877 0.200518 0.597719 13.4234 -1.35171 -5.37481 -1.28208 -0.53155 0.44672 20.461 6.18709 -4.84312 -0.710288 -0.970167 0.4032 22.0755 6.58601 -5.30713 -3.42483 -0.278904 -0.240415 -11.5768 -9.15204 -6.3098 -1.05787 -0.635999 0.156459 21.1476 6.99534 -4.85964 -0.42815 -0.754232 0.287187 10.7638 3.81197 -2.17124 1.4963 7.5744 -1.52136 5.35225 -1.47766 -15.8626 5.47506 -0.905672 0.485692 -58.8366 -1.91724 -59.184 11.3069 -0.201091 0.618544 -22.0356 -28.3944 -79.9671 9.61414 -0.254739 3.48553 -7.5336 22.3779 -28.4685 -0.176263 -0.07068 1.26622 24.2781 38.4817 -35.502 1.04683 -0.546484 1.82182 -6.53177 -1.24817 -11.4633 0.993472 -0.621916 0.655506 6.45121 2.66724 11.8095 2.64253 0.566363 2.4162 -5.18981 4.48316 12.5249 1.39394 -0.635138 0.899356 -36.9452 6.74324 17.0314 0.622395 -0.856016 0.402182 -38.0064 6.76572 17.556 3.20814 0.514427 1.52547 -1.48523 -0.683619 1.67105 1.56545 -0.497974 0.68919 -44.4871 8.35708 21.4001 0.679943 -1.17582 0.444246 -9.36074 3.19835 3.99261 3.47877 0.200518 0.597719 -8.07665 -2.63761 5.9902 1.28208 -0.53155 0.44672 -14.7811 5.15018 7.29475 0.710288 -0.970167 0.4032 -16.28 5.55275 8.08529 3.42483 -0.278904 -0.240415 11.7677 -11.303 2.60132 1.05787 -0.635999 0.156459 -18.896 6.82252 9.38287 0.42815 -0.754232 0.287187 -9.19097 3.762 4.35072 -4.17848 -1.02486 0.046356 -31.0933 -17.4752 -9.32726 1.27155 -17.465 -0.237699 0.669895 0.0549548 4.69565 0.529163 -17.3815 -1.19582 14.5773 21.5454 -2.71595 -0.711591 -4.4863 4.0596 1.26699 9.04596 -0.34373 4.17848 -1.02486 0.046356 41.8416 -40.4098 19.8457 -1.27155 -17.465 -0.237699 0.662433 24.7353 -1.78793 -0.529163 -17.3815 -1.19582 -9.30662 15.8142 -15.6517 0.711591 -4.4863 4.0596 0.171792 -1.39307 0.0721817 
-12.9894 6.69487 26.5527 10.2292 -64.6772 21.2021 3.55271e-015 5.99393 0.287273 -0.14102 -11.7257 0.550174 0 6.65865 -0.856112 -0.169695 -23.4522 1.1061 0 8.65624 -1.42685 0.321831 -0.899617 -5.49171 3.55271e-015 3.80999 -0.190247 16.9854 5.05398 -1.85718 -1.4963 7.5744 -1.52136 -20.7477 -0.120045 -0.881262 -5.47506 -0.905672 0.485692 58.3238 -1.40754 79.1501 -11.3069 -0.201091 0.618544 -4.60039 -9.30176 34.8435 -9.61414 -0.254739 3.48553 4.64048 -6.71174 37.5818 0.176263 -0.07068 1.26622 -19.5564 47.1207 31.2749 -1.04683 -0.546484 1.82182 4.64778 -3.91614 12.6948 -0.993472 -0.621916 0.655506 -6.6936 11.6018 -27.2268 -2.64253 0.566363 2.4162 22.6624 6.19462 -14.3658 -1.39394 -0.635138 0.899356 39.7253 7.68603 -8.77028 -0.622395 -0.856016 0.402182 40.5678 7.77383 -9.00293 -3.20814 0.514427 1.52547 6.20245 0.646588 -2.10291 -1.56545 -0.497974 0.68919 51.7974 10.4666 -12.7907 -0.679943 -1.17582 0.444246 14.547 4.13123 -2.59425 -3.47877 0.200518 0.597719 13.4234 -1.3517 -5.3748 -1.28208 -0.53155 0.44672 20.461 6.18708 -4.84312 -0.710288 -0.970167 0.4032 22.0756 6.58536 -5.30688 -3.42483 -0.278904 -0.240415 -11.5768 -9.15205 -6.3098 -1.05787 -0.635999 0.156459 21.1476 6.99534 -4.85966 -0.42815 -0.754232 0.287187 10.7638 3.81197 -2.17125 1.4963 7.5744 -1.52136 5.46672 -1.48895 -15.7595 5.47506 -0.905672 0.485692 -59.1524 -1.7393 -59.0614 11.3069 -0.201091 0.618544 -22.733 -28.5754 -80.6489 9.61414 -0.254739 3.48553 -7.74146 23.2535 -28.1091 -0.176263 -0.07068 1.26622 24.2781 38.4817 -35.502 1.04683 -0.546484 1.82182 -6.53178 -1.24818 -11.4633 0.993472 -0.621916 0.655506 6.45118 2.6672 11.8096 2.64253 0.566363 2.4162 -5.18982 4.4831 12.5249 1.39394 -0.635138 0.899356 -36.9452 6.7432 17.0313 0.622395 -0.856016 0.402182 -38.0065 6.76567 17.556 3.20814 0.514427 1.52547 -1.48523 -0.683684 1.67104 1.56545 -0.497974 0.68919 -44.4871 8.35705 21.4001 0.679943 -1.17582 0.444246 -9.36072 3.19834 3.99262 3.47877 0.200518 0.597719 -8.07665 -2.63764 5.99019 1.28208 -0.53155 0.44672 -14.7811 5.15011 7.29476 0.710288 -0.970167 0.4032 -16.2799 5.55272 8.08529 3.42483 -0.278904 -0.240415 11.7677 -11.3031 2.60132 1.05787 -0.635999 0.156459 -18.896 6.82251 9.38287 0.42815 -0.754232 0.287187 -9.19228 3.76247 4.35138 -4.17848 -1.02486 0.046356 -31.2134 -17.5201 -9.40958 1.27155 -17.465 -0.237699 0.651735 -0.0474292 4.6948 0.529163 -17.3815 -1.19582 14.4004 21.6488 -2.38263 -0.711591 -4.4863 4.0596 1.27023 9.06835 -0.34483 4.17848 -1.02486 0.046356 41.8977 -40.3057 19.8731 -1.27155 -17.465 -0.237699 0.638357 24.5971 -1.83434 -0.529163 -17.3815 -1.19582 -9.53287 15.9516 -15.3309 0.711591 -4.4863 4.0596 0.17958 -1.45589 0.0755452 
